<svg width="320" height="320" viewBox="0 0 320 320" fill="none" xmlns="http://www.w3.org/2000/svg">
<g filter="url(#filter0_d_640_2840)">
<rect x="72" y="56" width="160" height="192" rx="19.2" fill="white"/>
</g>
<g filter="url(#filter1_d_640_2840)">
<rect x="92" y="212" width="100" height="12" rx="6" fill="url(#paint0_linear_640_2840)"/>
</g>
<g filter="url(#filter2_d_640_2840)">
<rect x="92" y="192" width="112" height="12" rx="6" fill="url(#paint1_linear_640_2840)"/>
</g>
<g filter="url(#filter3_d_640_2840)">
<rect x="92" y="172" width="92" height="12" rx="6" fill="url(#paint2_linear_640_2840)"/>
</g>
<g filter="url(#filter4_d_640_2840)">
<rect x="92" y="152" width="108" height="12" rx="6" fill="url(#paint3_linear_640_2840)"/>
</g>
<g filter="url(#filter5_d_640_2840)">
<rect x="92" y="132" width="116" height="12" rx="6" fill="url(#paint4_linear_640_2840)"/>
</g>
<g filter="url(#filter6_d_640_2840)">
<rect x="92" y="84" width="72" height="16" rx="8" fill="url(#paint5_linear_640_2840)"/>
</g>
<g filter="url(#filter7_d_640_2840)">
<rect x="171.885" y="171.026" width="72" height="72" rx="9.6" transform="rotate(5 171.885 171.026)" fill="white"/>
</g>
<g filter="url(#filter8_d_640_2840)">
<rect x="167.377" y="176.655" width="80" height="80" rx="9.6" transform="rotate(5 167.377 176.655)" fill="white"/>
</g>
<g clip-path="url(#clip0_640_2840)">
<g filter="url(#filter9_d_640_2840)">
<path d="M200.396 227.224L210.654 221.848C211.145 221.59 211.413 221.195 211.46 220.664C211.506 220.132 211.31 219.697 210.871 219.358L201.703 212.282C201.234 211.906 200.73 211.837 200.191 212.074C199.651 212.311 199.355 212.729 199.303 213.326L198.214 225.779C198.161 226.376 198.38 226.839 198.87 227.166C199.36 227.494 199.869 227.513 200.396 227.224ZM201.996 239.912C199.24 239.671 196.696 238.921 194.363 237.663C192.031 236.405 190.046 234.801 188.41 232.851C186.774 230.901 185.539 228.668 184.705 226.153C183.871 223.637 183.574 221.001 183.815 218.245C184.057 215.489 184.806 212.945 186.064 210.612C187.322 208.28 188.926 206.295 190.876 204.659C192.827 203.023 195.059 201.788 197.575 200.954C200.09 200.12 202.726 199.823 205.482 200.064C208.239 200.306 210.783 201.055 213.116 202.313C215.448 203.571 217.433 205.175 219.069 207.125C220.705 209.075 221.94 211.308 222.774 213.824C223.608 216.339 223.904 218.975 223.663 221.731C223.422 224.488 222.673 227.032 221.414 229.364C220.156 231.697 218.552 233.681 216.602 235.318C214.652 236.954 212.419 238.189 209.904 239.023C207.388 239.857 204.752 240.153 201.996 239.912Z" fill="#1F1F1F"/>
<path d="M200.396 227.224L210.654 221.848C211.145 221.59 211.413 221.195 211.46 220.664C211.506 220.132 211.31 219.697 210.871 219.358L201.703 212.282C201.234 211.906 200.73 211.837 200.191 212.074C199.651 212.311 199.355 212.729 199.303 213.326L198.214 225.779C198.161 226.376 198.38 226.839 198.87 227.166C199.36 227.494 199.869 227.513 200.396 227.224ZM201.996 239.912C199.24 239.671 196.696 238.921 194.363 237.663C192.031 236.405 190.046 234.801 188.41 232.851C186.774 230.901 185.539 228.668 184.705 226.153C183.871 223.637 183.574 221.001 183.815 218.245C184.057 215.489 184.806 212.945 186.064 210.612C187.322 208.28 188.926 206.295 190.876 204.659C192.827 203.023 195.059 201.788 197.575 200.954C200.09 200.12 202.726 199.823 205.482 200.064C208.239 200.306 210.783 201.055 213.116 202.313C215.448 203.571 217.433 205.175 219.069 207.125C220.705 209.075 221.94 211.308 222.774 213.824C223.608 216.339 223.904 218.975 223.663 221.731C223.422 224.488 222.673 227.032 221.414 229.364C220.156 231.697 218.552 233.681 216.602 235.318C214.652 236.954 212.419 238.189 209.904 239.023C207.388 239.857 204.752 240.153 201.996 239.912Z" fill="url(#paint6_linear_640_2840)"/>
</g>
</g>
<defs>
<filter id="filter0_d_640_2840" x="33.6" y="27.2" width="236.8" height="268.8" filterUnits="userSpaceOnUse" color-interpolation-filters="sRGB">
<feFlood flood-opacity="0" result="BackgroundImageFix"/>
<feColorMatrix in="SourceAlpha" type="matrix" values="0 0 0 0 0 0 0 0 0 0 0 0 0 0 0 0 0 0 127 0" result="hardAlpha"/>
<feOffset dy="9.6"/>
<feGaussianBlur stdDeviation="19.2"/>
<feComposite in2="hardAlpha" operator="out"/>
<feColorMatrix type="matrix" values="0 0 0 0 0 0 0 0 0 0 0 0 0 0 0 0 0 0 0.1 0"/>
<feBlend mode="normal" in2="BackgroundImageFix" result="effect1_dropShadow_640_2840"/>
<feBlend mode="normal" in="SourceGraphic" in2="effect1_dropShadow_640_2840" result="shape"/>
</filter>
<filter id="filter1_d_640_2840" x="84" y="208" width="116" height="28" filterUnits="userSpaceOnUse" color-interpolation-filters="sRGB">
<feFlood flood-opacity="0" result="BackgroundImageFix"/>
<feColorMatrix in="SourceAlpha" type="matrix" values="0 0 0 0 0 0 0 0 0 0 0 0 0 0 0 0 0 0 127 0" result="hardAlpha"/>
<feOffset dy="4"/>
<feGaussianBlur stdDeviation="4"/>
<feComposite in2="hardAlpha" operator="out"/>
<feColorMatrix type="matrix" values="0 0 0 0 0 0 0 0 0 0 0 0 0 0 0 0 0 0 0.05 0"/>
<feBlend mode="normal" in2="BackgroundImageFix" result="effect1_dropShadow_640_2840"/>
<feBlend mode="normal" in="SourceGraphic" in2="effect1_dropShadow_640_2840" result="shape"/>
</filter>
<filter id="filter2_d_640_2840" x="84" y="188" width="128" height="28" filterUnits="userSpaceOnUse" color-interpolation-filters="sRGB">
<feFlood flood-opacity="0" result="BackgroundImageFix"/>
<feColorMatrix in="SourceAlpha" type="matrix" values="0 0 0 0 0 0 0 0 0 0 0 0 0 0 0 0 0 0 127 0" result="hardAlpha"/>
<feOffset dy="4"/>
<feGaussianBlur stdDeviation="4"/>
<feComposite in2="hardAlpha" operator="out"/>
<feColorMatrix type="matrix" values="0 0 0 0 0 0 0 0 0 0 0 0 0 0 0 0 0 0 0.05 0"/>
<feBlend mode="normal" in2="BackgroundImageFix" result="effect1_dropShadow_640_2840"/>
<feBlend mode="normal" in="SourceGraphic" in2="effect1_dropShadow_640_2840" result="shape"/>
</filter>
<filter id="filter3_d_640_2840" x="84" y="168" width="108" height="28" filterUnits="userSpaceOnUse" color-interpolation-filters="sRGB">
<feFlood flood-opacity="0" result="BackgroundImageFix"/>
<feColorMatrix in="SourceAlpha" type="matrix" values="0 0 0 0 0 0 0 0 0 0 0 0 0 0 0 0 0 0 127 0" result="hardAlpha"/>
<feOffset dy="4"/>
<feGaussianBlur stdDeviation="4"/>
<feComposite in2="hardAlpha" operator="out"/>
<feColorMatrix type="matrix" values="0 0 0 0 0 0 0 0 0 0 0 0 0 0 0 0 0 0 0.05 0"/>
<feBlend mode="normal" in2="BackgroundImageFix" result="effect1_dropShadow_640_2840"/>
<feBlend mode="normal" in="SourceGraphic" in2="effect1_dropShadow_640_2840" result="shape"/>
</filter>
<filter id="filter4_d_640_2840" x="84" y="148" width="124" height="28" filterUnits="userSpaceOnUse" color-interpolation-filters="sRGB">
<feFlood flood-opacity="0" result="BackgroundImageFix"/>
<feColorMatrix in="SourceAlpha" type="matrix" values="0 0 0 0 0 0 0 0 0 0 0 0 0 0 0 0 0 0 127 0" result="hardAlpha"/>
<feOffset dy="4"/>
<feGaussianBlur stdDeviation="4"/>
<feComposite in2="hardAlpha" operator="out"/>
<feColorMatrix type="matrix" values="0 0 0 0 0 0 0 0 0 0 0 0 0 0 0 0 0 0 0.05 0"/>
<feBlend mode="normal" in2="BackgroundImageFix" result="effect1_dropShadow_640_2840"/>
<feBlend mode="normal" in="SourceGraphic" in2="effect1_dropShadow_640_2840" result="shape"/>
</filter>
<filter id="filter5_d_640_2840" x="84" y="128" width="132" height="28" filterUnits="userSpaceOnUse" color-interpolation-filters="sRGB">
<feFlood flood-opacity="0" result="BackgroundImageFix"/>
<feColorMatrix in="SourceAlpha" type="matrix" values="0 0 0 0 0 0 0 0 0 0 0 0 0 0 0 0 0 0 127 0" result="hardAlpha"/>
<feOffset dy="4"/>
<feGaussianBlur stdDeviation="4"/>
<feComposite in2="hardAlpha" operator="out"/>
<feColorMatrix type="matrix" values="0 0 0 0 0 0 0 0 0 0 0 0 0 0 0 0 0 0 0.05 0"/>
<feBlend mode="normal" in2="BackgroundImageFix" result="effect1_dropShadow_640_2840"/>
<feBlend mode="normal" in="SourceGraphic" in2="effect1_dropShadow_640_2840" result="shape"/>
</filter>
<filter id="filter6_d_640_2840" x="84" y="80" width="88" height="32" filterUnits="userSpaceOnUse" color-interpolation-filters="sRGB">
<feFlood flood-opacity="0" result="BackgroundImageFix"/>
<feColorMatrix in="SourceAlpha" type="matrix" values="0 0 0 0 0 0 0 0 0 0 0 0 0 0 0 0 0 0 127 0" result="hardAlpha"/>
<feOffset dy="4"/>
<feGaussianBlur stdDeviation="4"/>
<feComposite in2="hardAlpha" operator="out"/>
<feColorMatrix type="matrix" values="0 0 0 0 0 0 0 0 0 0 0 0 0 0 0 0 0 0 0.05 0"/>
<feBlend mode="normal" in2="BackgroundImageFix" result="effect1_dropShadow_640_2840"/>
<feBlend mode="normal" in="SourceGraphic" in2="effect1_dropShadow_640_2840" result="shape"/>
</filter>
<filter id="filter7_d_640_2840" x="147.209" y="157.426" width="114.802" height="114.802" filterUnits="userSpaceOnUse" color-interpolation-filters="sRGB">
<feFlood flood-opacity="0" result="BackgroundImageFix"/>
<feColorMatrix in="SourceAlpha" type="matrix" values="0 0 0 0 0 0 0 0 0 0 0 0 0 0 0 0 0 0 127 0" result="hardAlpha"/>
<feOffset dy="4.8"/>
<feGaussianBlur stdDeviation="9.6"/>
<feComposite in2="hardAlpha" operator="out"/>
<feColorMatrix type="matrix" values="0 0 0 0 0 0 0 0 0 0 0 0 0 0 0 0 0 0 0.1 0"/>
<feBlend mode="normal" in2="BackgroundImageFix" result="effect1_dropShadow_640_2840"/>
<feBlend mode="normal" in="SourceGraphic" in2="effect1_dropShadow_640_2840" result="shape"/>
</filter>
<filter id="filter8_d_640_2840" x="142.004" y="163.055" width="123.469" height="123.468" filterUnits="userSpaceOnUse" color-interpolation-filters="sRGB">
<feFlood flood-opacity="0" result="BackgroundImageFix"/>
<feColorMatrix in="SourceAlpha" type="matrix" values="0 0 0 0 0 0 0 0 0 0 0 0 0 0 0 0 0 0 127 0" result="hardAlpha"/>
<feOffset dy="4.8"/>
<feGaussianBlur stdDeviation="9.6"/>
<feComposite in2="hardAlpha" operator="out"/>
<feColorMatrix type="matrix" values="0 0 0 0 0 0 0 0 0 0 0 0 0 0 0 0 0 0 0.1 0"/>
<feBlend mode="normal" in2="BackgroundImageFix" result="effect1_dropShadow_640_2840"/>
<feBlend mode="normal" in="SourceGraphic" in2="effect1_dropShadow_640_2840" result="shape"/>
</filter>
<filter id="filter9_d_640_2840" x="179.734" y="197.983" width="48.0103" height="48.0098" filterUnits="userSpaceOnUse" color-interpolation-filters="sRGB">
<feFlood flood-opacity="0" result="BackgroundImageFix"/>
<feColorMatrix in="SourceAlpha" type="matrix" values="0 0 0 0 0 0 0 0 0 0 0 0 0 0 0 0 0 0 127 0" result="hardAlpha"/>
<feOffset dy="2"/>
<feGaussianBlur stdDeviation="2"/>
<feComposite in2="hardAlpha" operator="out"/>
<feColorMatrix type="matrix" values="0 0 0 0 0 0 0 0 0 0 0 0 0 0 0 0 0 0 0.05 0"/>
<feBlend mode="normal" in2="BackgroundImageFix" result="effect1_dropShadow_640_2840"/>
<feBlend mode="normal" in="SourceGraphic" in2="effect1_dropShadow_640_2840" result="shape"/>
</filter>
<linearGradient id="paint0_linear_640_2840" x1="192" y1="218" x2="92" y2="218" gradientUnits="userSpaceOnUse">
<stop stop-color="#C9CDD5"/>
<stop offset="1" stop-color="#AAB1C1"/>
</linearGradient>
<linearGradient id="paint1_linear_640_2840" x1="204" y1="198" x2="92" y2="198" gradientUnits="userSpaceOnUse">
<stop stop-color="#C9CDD5"/>
<stop offset="1" stop-color="#AAB1C1"/>
</linearGradient>
<linearGradient id="paint2_linear_640_2840" x1="184" y1="178" x2="92" y2="178" gradientUnits="userSpaceOnUse">
<stop stop-color="#C9CDD5"/>
<stop offset="1" stop-color="#AAB1C1"/>
</linearGradient>
<linearGradient id="paint3_linear_640_2840" x1="200" y1="158" x2="92" y2="158" gradientUnits="userSpaceOnUse">
<stop stop-color="#C9CDD5"/>
<stop offset="1" stop-color="#AAB1C1"/>
</linearGradient>
<linearGradient id="paint4_linear_640_2840" x1="208" y1="138" x2="92" y2="138" gradientUnits="userSpaceOnUse">
<stop stop-color="#C9CDD5"/>
<stop offset="1" stop-color="#AAB1C1"/>
</linearGradient>
<linearGradient id="paint5_linear_640_2840" x1="164" y1="92" x2="92" y2="92.0001" gradientUnits="userSpaceOnUse">
<stop stop-color="#C9CDD5"/>
<stop offset="1" stop-color="#AAB1C1"/>
</linearGradient>
<linearGradient id="paint6_linear_640_2840" x1="223.663" y1="221.732" x2="183.815" y2="218.245" gradientUnits="userSpaceOnUse">
<stop stop-color="#C9CDD5"/>
<stop offset="1" stop-color="#AAB1C1"/>
</linearGradient>
<clipPath id="clip0_640_2840">
<rect width="48" height="48" fill="white" transform="translate(181.922 193.988) rotate(5)"/>
</clipPath>
</defs>
</svg>
