<svg width="320" height="320" viewBox="0 0 320 320" fill="none" xmlns="http://www.w3.org/2000/svg">
<g filter="url(#filter0_d_640_2839)">
<rect x="88" y="72" width="144" height="144" rx="19.2" fill="white"/>
</g>
<g filter="url(#filter1_d_640_2839)">
<rect x="80" y="84" width="160" height="160" rx="19.2" fill="white"/>
</g>
<g clip-path="url(#clip0_640_2839)">
<g filter="url(#filter2_d_640_2839)">
<path d="M154.6 179L174.1 166.5C175.033 165.9 175.5 165.067 175.5 164C175.5 162.933 175.033 162.1 174.1 161.5L154.6 149C153.6 148.333 152.583 148.283 151.55 148.85C150.517 149.417 150 150.3 150 151.5V176.5C150 177.7 150.517 178.583 151.55 179.15C152.583 179.717 153.6 179.667 154.6 179ZM160 204C154.467 204 149.267 202.95 144.4 200.85C139.533 198.75 135.3 195.9 131.7 192.3C128.1 188.7 125.25 184.467 123.15 179.6C121.05 174.733 120 169.533 120 164C120 158.467 121.05 153.267 123.15 148.4C125.25 143.533 128.1 139.3 131.7 135.7C135.3 132.1 139.533 129.25 144.4 127.15C149.267 125.05 154.467 124 160 124C165.533 124 170.733 125.05 175.6 127.15C180.467 129.25 184.7 132.1 188.3 135.7C191.9 139.3 194.75 143.533 196.85 148.4C198.95 153.267 200 158.467 200 164C200 169.533 198.95 174.733 196.85 179.6C194.75 184.467 191.9 188.7 188.3 192.3C184.7 195.9 180.467 198.75 175.6 200.85C170.733 202.95 165.533 204 160 204Z" fill="#1F1F1F"/>
<path d="M154.6 179L174.1 166.5C175.033 165.9 175.5 165.067 175.5 164C175.5 162.933 175.033 162.1 174.1 161.5L154.6 149C153.6 148.333 152.583 148.283 151.55 148.85C150.517 149.417 150 150.3 150 151.5V176.5C150 177.7 150.517 178.583 151.55 179.15C152.583 179.717 153.6 179.667 154.6 179ZM160 204C154.467 204 149.267 202.95 144.4 200.85C139.533 198.75 135.3 195.9 131.7 192.3C128.1 188.7 125.25 184.467 123.15 179.6C121.05 174.733 120 169.533 120 164C120 158.467 121.05 153.267 123.15 148.4C125.25 143.533 128.1 139.3 131.7 135.7C135.3 132.1 139.533 129.25 144.4 127.15C149.267 125.05 154.467 124 160 124C165.533 124 170.733 125.05 175.6 127.15C180.467 129.25 184.7 132.1 188.3 135.7C191.9 139.3 194.75 143.533 196.85 148.4C198.95 153.267 200 158.467 200 164C200 169.533 198.95 174.733 196.85 179.6C194.75 184.467 191.9 188.7 188.3 192.3C184.7 195.9 180.467 198.75 175.6 200.85C170.733 202.95 165.533 204 160 204Z" fill="url(#paint0_linear_640_2839)"/>
</g>
</g>
<g filter="url(#filter3_d_640_2839)">
<path d="M223.389 98.9083L218.27 100.28C217.207 100.565 216.196 100.43 215.237 99.8762C214.277 99.3223 213.655 98.5141 213.371 97.4516L211.999 92.3322L207.271 89.5615C206.813 89.27 206.425 88.9168 206.107 88.5017C205.788 88.0866 205.565 87.6375 205.435 87.1546C205.306 86.6716 205.275 86.1708 205.343 85.6522C205.411 85.1335 205.571 84.6336 205.821 84.1523L208.531 79.3888L207.159 74.2694C206.874 73.2068 207.009 72.1959 207.563 71.2365C208.117 70.2771 208.925 69.6551 209.987 69.3704L215.107 67.9986L217.877 63.2704C218.169 62.8127 218.522 62.4247 218.937 62.1065C219.352 61.7882 219.801 61.5643 220.284 61.4349C220.767 61.3055 221.268 61.2748 221.787 61.3429C222.305 61.411 222.805 61.5704 223.287 61.821L228.05 64.5305L233.17 63.1587C234.232 62.874 235.243 63.0086 236.203 63.5625C237.162 64.1164 237.784 64.9246 238.069 65.9871L239.44 71.1066L244.169 73.8772C244.626 74.1687 245.014 74.522 245.333 74.9371C245.651 75.3522 245.875 75.8012 246.004 76.2842C246.133 76.7671 246.164 77.2679 246.096 77.7865C246.028 78.3052 245.869 78.8051 245.618 79.2864L242.909 84.05L244.28 89.1694C244.565 90.2319 244.43 91.2428 243.876 92.2022C243.323 93.1616 242.514 93.7836 241.452 94.0683L236.332 95.4401L233.562 100.168C233.27 100.626 232.917 101.014 232.502 101.332C232.087 101.651 231.638 101.874 231.155 102.004C230.672 102.133 230.171 102.164 229.652 102.096C229.134 102.028 228.634 101.868 228.153 101.618L223.389 98.9083Z" fill="#1F1F1F"/>
<path d="M223.389 98.9083L218.27 100.28C217.207 100.565 216.196 100.43 215.237 99.8762C214.277 99.3223 213.655 98.5141 213.371 97.4516L211.999 92.3322L207.271 89.5615C206.813 89.27 206.425 88.9168 206.107 88.5017C205.788 88.0866 205.565 87.6375 205.435 87.1546C205.306 86.6716 205.275 86.1708 205.343 85.6522C205.411 85.1335 205.571 84.6336 205.821 84.1523L208.531 79.3888L207.159 74.2694C206.874 73.2068 207.009 72.1959 207.563 71.2365C208.117 70.2771 208.925 69.6551 209.987 69.3704L215.107 67.9986L217.877 63.2704C218.169 62.8127 218.522 62.4247 218.937 62.1065C219.352 61.7882 219.801 61.5643 220.284 61.4349C220.767 61.3055 221.268 61.2748 221.787 61.3429C222.305 61.411 222.805 61.5704 223.287 61.821L228.05 64.5305L233.17 63.1587C234.232 62.874 235.243 63.0086 236.203 63.5625C237.162 64.1164 237.784 64.9246 238.069 65.9871L239.44 71.1066L244.169 73.8772C244.626 74.1687 245.014 74.522 245.333 74.9371C245.651 75.3522 245.875 75.8012 246.004 76.2842C246.133 76.7671 246.164 77.2679 246.096 77.7865C246.028 78.3052 245.869 78.8051 245.618 79.2864L242.909 84.05L244.28 89.1694C244.565 90.2319 244.43 91.2428 243.876 92.2022C243.323 93.1616 242.514 93.7836 241.452 94.0683L236.332 95.4401L233.562 100.168C233.27 100.626 232.917 101.014 232.502 101.332C232.087 101.651 231.638 101.874 231.155 102.004C230.672 102.133 230.171 102.164 229.652 102.096C229.134 102.028 228.634 101.868 228.153 101.618L223.389 98.9083Z" fill="url(#paint1_linear_640_2839)"/>
<path d="M219.767 59.5031C220.515 59.3027 221.28 59.2597 222.047 59.3602C222.806 59.4599 223.53 59.6928 224.21 60.0473L224.243 60.0647L224.275 60.0824L228.325 62.3862L232.652 61.2269C234.231 60.8038 235.787 61.0134 237.203 61.8304C238.618 62.6474 239.577 63.8906 240 65.4695L241.16 69.7954L245.18 72.1516L245.211 72.1705L245.243 72.1903C245.89 72.6026 246.454 73.1132 246.92 73.7206C247.39 74.3341 247.736 75.0186 247.936 75.7665C248.136 76.5145 248.179 77.28 248.079 78.0465C247.979 78.8054 247.746 79.5295 247.392 80.2102L247.374 80.2431L247.357 80.2752L245.053 84.3249L246.212 88.6517C246.635 90.2307 246.426 91.7872 245.609 93.2022C244.792 94.6173 243.548 95.5771 241.969 96.0002L237.643 97.1596L235.287 101.18L235.269 101.211L235.249 101.243C234.836 101.89 234.326 102.454 233.718 102.919C233.105 103.39 232.42 103.735 231.672 103.936C230.925 104.136 230.159 104.179 229.392 104.078C228.634 103.979 227.91 103.746 227.229 103.391L227.196 103.374L227.164 103.356L223.114 101.052L218.787 102.212C217.208 102.635 215.652 102.425 214.237 101.608C212.822 100.791 211.862 99.5482 211.439 97.9692L210.279 93.6424L206.259 91.2871L206.228 91.2682L206.196 91.2484C205.549 90.8362 204.985 90.3256 204.52 89.7181C204.049 89.1046 203.704 88.4202 203.503 87.6722C203.303 86.9242 203.26 86.1587 203.361 85.3922C203.46 84.6333 203.693 83.9092 204.048 83.2286L204.065 83.1956L204.083 83.1635L206.386 79.1129L205.227 74.787C204.804 73.208 205.014 71.6516 205.831 70.2365C206.648 68.8214 207.891 67.8616 209.47 67.4385L213.797 66.2791L216.152 62.2592L216.171 62.2278L216.191 62.1962C216.603 61.5489 217.113 60.9851 217.721 60.5194C218.334 60.049 219.019 59.7035 219.767 59.5031Z" stroke="white" stroke-width="4"/>
</g>
<defs>
<filter id="filter0_d_640_2839" x="49.6" y="43.2" width="220.8" height="220.8" filterUnits="userSpaceOnUse" color-interpolation-filters="sRGB">
<feFlood flood-opacity="0" result="BackgroundImageFix"/>
<feColorMatrix in="SourceAlpha" type="matrix" values="0 0 0 0 0 0 0 0 0 0 0 0 0 0 0 0 0 0 127 0" result="hardAlpha"/>
<feOffset dy="9.6"/>
<feGaussianBlur stdDeviation="19.2"/>
<feComposite in2="hardAlpha" operator="out"/>
<feColorMatrix type="matrix" values="0 0 0 0 0 0 0 0 0 0 0 0 0 0 0 0 0 0 0.1 0"/>
<feBlend mode="normal" in2="BackgroundImageFix" result="effect1_dropShadow_640_2839"/>
<feBlend mode="normal" in="SourceGraphic" in2="effect1_dropShadow_640_2839" result="shape"/>
</filter>
<filter id="filter1_d_640_2839" x="41.6" y="55.2" width="236.8" height="236.8" filterUnits="userSpaceOnUse" color-interpolation-filters="sRGB">
<feFlood flood-opacity="0" result="BackgroundImageFix"/>
<feColorMatrix in="SourceAlpha" type="matrix" values="0 0 0 0 0 0 0 0 0 0 0 0 0 0 0 0 0 0 127 0" result="hardAlpha"/>
<feOffset dy="9.6"/>
<feGaussianBlur stdDeviation="19.2"/>
<feComposite in2="hardAlpha" operator="out"/>
<feColorMatrix type="matrix" values="0 0 0 0 0 0 0 0 0 0 0 0 0 0 0 0 0 0 0.1 0"/>
<feBlend mode="normal" in2="BackgroundImageFix" result="effect1_dropShadow_640_2839"/>
<feBlend mode="normal" in="SourceGraphic" in2="effect1_dropShadow_640_2839" result="shape"/>
</filter>
<filter id="filter2_d_640_2839" x="112" y="120" width="96" height="96" filterUnits="userSpaceOnUse" color-interpolation-filters="sRGB">
<feFlood flood-opacity="0" result="BackgroundImageFix"/>
<feColorMatrix in="SourceAlpha" type="matrix" values="0 0 0 0 0 0 0 0 0 0 0 0 0 0 0 0 0 0 127 0" result="hardAlpha"/>
<feOffset dy="4"/>
<feGaussianBlur stdDeviation="4"/>
<feComposite in2="hardAlpha" operator="out"/>
<feColorMatrix type="matrix" values="0 0 0 0 0 0 0 0 0 0 0 0 0 0 0 0 0 0 0.05 0"/>
<feBlend mode="normal" in2="BackgroundImageFix" result="effect1_dropShadow_640_2839"/>
<feBlend mode="normal" in="SourceGraphic" in2="effect1_dropShadow_640_2839" result="shape"/>
</filter>
<filter id="filter3_d_640_2839" x="193.308" y="53.3076" width="64.8232" height="64.8232" filterUnits="userSpaceOnUse" color-interpolation-filters="sRGB">
<feFlood flood-opacity="0" result="BackgroundImageFix"/>
<feColorMatrix in="SourceAlpha" type="matrix" values="0 0 0 0 0 0 0 0 0 0 0 0 0 0 0 0 0 0 127 0" result="hardAlpha"/>
<feOffset dy="4"/>
<feGaussianBlur stdDeviation="4"/>
<feComposite in2="hardAlpha" operator="out"/>
<feColorMatrix type="matrix" values="0 0 0 0 0 0 0 0 0 0 0 0 0 0 0 0 0 0 0.05 0"/>
<feBlend mode="normal" in2="BackgroundImageFix" result="effect1_dropShadow_640_2839"/>
<feBlend mode="normal" in="SourceGraphic" in2="effect1_dropShadow_640_2839" result="shape"/>
</filter>
<linearGradient id="paint0_linear_640_2839" x1="200" y1="164" x2="120" y2="164" gradientUnits="userSpaceOnUse">
<stop stop-color="#C9CDD5"/>
<stop offset="1" stop-color="#AAB1C1"/>
</linearGradient>
<linearGradient id="paint1_linear_640_2839" x1="246.004" y1="76.2843" x2="205.435" y2="87.1547" gradientUnits="userSpaceOnUse">
<stop stop-color="#C9CDD5"/>
<stop offset="1" stop-color="#AAB1C1"/>
</linearGradient>
<clipPath id="clip0_640_2839">
<rect width="96" height="96" fill="white" transform="translate(112 116)"/>
</clipPath>
</defs>
</svg>
