<svg width="320" height="320" viewBox="0 0 320 320" fill="none" xmlns="http://www.w3.org/2000/svg">
<g filter="url(#filter0_d_640_2842)">
<path d="M211.719 100C214.393 100 216.891 101.337 218.375 103.562L248.604 148.906C253.083 155.624 253.083 164.376 248.604 171.094L218.375 216.438C216.891 218.663 214.393 220 211.719 220H72C67.5817 220 64 216.418 64 212V108C64 103.582 67.5817 100 72 100H211.719ZM212 144C203.163 144 196 151.163 196 160C196 168.837 203.163 176 212 176C220.837 176 228 168.837 228 160C228 151.163 220.837 144 212 144Z" fill="white"/>
</g>
<defs>
<filter id="filter0_d_640_2842" x="25.6" y="71.2" width="264.763" height="196.8" filterUnits="userSpaceOnUse" color-interpolation-filters="sRGB">
<feFlood flood-opacity="0" result="BackgroundImageFix"/>
<feColorMatrix in="SourceAlpha" type="matrix" values="0 0 0 0 0 0 0 0 0 0 0 0 0 0 0 0 0 0 127 0" result="hardAlpha"/>
<feOffset dy="9.6"/>
<feGaussianBlur stdDeviation="19.2"/>
<feComposite in2="hardAlpha" operator="out"/>
<feColorMatrix type="matrix" values="0 0 0 0 0 0 0 0 0 0 0 0 0 0 0 0 0 0 0.1 0"/>
<feBlend mode="normal" in2="BackgroundImageFix" result="effect1_dropShadow_640_2842"/>
<feBlend mode="normal" in="SourceGraphic" in2="effect1_dropShadow_640_2842" result="shape"/>
</filter>
</defs>
</svg>
