<svg width="320" height="320" viewBox="0 0 320 320" fill="none" xmlns="http://www.w3.org/2000/svg">
<g filter="url(#filter0_d_640_2838)">
<rect x="80" y="64" width="160" height="192" rx="19.2" fill="white"/>
</g>
<g filter="url(#filter1_d_640_2838)">
<rect x="100" y="220" width="100" height="12" rx="6" fill="url(#paint0_linear_640_2838)"/>
</g>
<g filter="url(#filter2_d_640_2838)">
<rect x="100" y="200" width="112" height="12" rx="6" fill="url(#paint1_linear_640_2838)"/>
</g>
<g filter="url(#filter3_d_640_2838)">
<rect x="100" y="180" width="92" height="12" rx="6" fill="url(#paint2_linear_640_2838)"/>
</g>
<g filter="url(#filter4_d_640_2838)">
<rect x="100" y="160" width="108" height="12" rx="6" fill="url(#paint3_linear_640_2838)"/>
</g>
<g filter="url(#filter5_d_640_2838)">
<rect x="100" y="140" width="116" height="12" rx="6" fill="url(#paint4_linear_640_2838)"/>
</g>
<g filter="url(#filter6_d_640_2838)">
<rect x="100" y="92" width="72" height="16" rx="8" fill="url(#paint5_linear_640_2838)"/>
</g>
<g filter="url(#filter7_d_640_2838)">
<path d="M223.389 90.9083L218.27 92.28C217.207 92.5647 216.196 92.4301 215.237 91.8762C214.277 91.3223 213.655 90.5141 213.371 89.4516L211.999 84.3322L207.271 81.5615C206.813 81.27 206.425 80.9168 206.107 80.5017C205.788 80.0866 205.565 79.6375 205.435 79.1546C205.306 78.6716 205.275 78.1708 205.343 77.6522C205.411 77.1335 205.571 76.6336 205.821 76.1523L208.531 71.3888L207.159 66.2694C206.874 65.2068 207.009 64.1959 207.563 63.2365C208.117 62.2771 208.925 61.6551 209.987 61.3704L215.107 59.9986L217.877 55.2704C218.169 54.8127 218.522 54.4247 218.937 54.1065C219.352 53.7882 219.801 53.5643 220.284 53.4349C220.767 53.3055 221.268 53.2748 221.787 53.3429C222.305 53.411 222.805 53.5704 223.287 53.821L228.05 56.5305L233.17 55.1587C234.232 54.874 235.243 55.0086 236.203 55.5625C237.162 56.1164 237.784 56.9246 238.069 57.9871L239.44 63.1066L244.169 65.8772C244.626 66.1687 245.014 66.522 245.333 66.9371C245.651 67.3522 245.875 67.8012 246.004 68.2842C246.133 68.7671 246.164 69.2679 246.096 69.7865C246.028 70.3052 245.869 70.8051 245.618 71.2864L242.909 76.05L244.28 81.1694C244.565 82.2319 244.43 83.2428 243.876 84.2022C243.323 85.1616 242.514 85.7836 241.452 86.0683L236.332 87.4401L233.562 92.1683C233.27 92.626 232.917 93.014 232.502 93.3323C232.087 93.6505 231.638 93.8744 231.155 94.0038C230.672 94.1332 230.171 94.1639 229.652 94.0958C229.134 94.0277 228.634 93.8683 228.153 93.6177L223.389 90.9083Z" fill="#1F1F1F"/>
<path d="M223.389 90.9083L218.27 92.28C217.207 92.5647 216.196 92.4301 215.237 91.8762C214.277 91.3223 213.655 90.5141 213.371 89.4516L211.999 84.3322L207.271 81.5615C206.813 81.27 206.425 80.9168 206.107 80.5017C205.788 80.0866 205.565 79.6375 205.435 79.1546C205.306 78.6716 205.275 78.1708 205.343 77.6522C205.411 77.1335 205.571 76.6336 205.821 76.1523L208.531 71.3888L207.159 66.2694C206.874 65.2068 207.009 64.1959 207.563 63.2365C208.117 62.2771 208.925 61.6551 209.987 61.3704L215.107 59.9986L217.877 55.2704C218.169 54.8127 218.522 54.4247 218.937 54.1065C219.352 53.7882 219.801 53.5643 220.284 53.4349C220.767 53.3055 221.268 53.2748 221.787 53.3429C222.305 53.411 222.805 53.5704 223.287 53.821L228.05 56.5305L233.17 55.1587C234.232 54.874 235.243 55.0086 236.203 55.5625C237.162 56.1164 237.784 56.9246 238.069 57.9871L239.44 63.1066L244.169 65.8772C244.626 66.1687 245.014 66.522 245.333 66.9371C245.651 67.3522 245.875 67.8012 246.004 68.2842C246.133 68.7671 246.164 69.2679 246.096 69.7865C246.028 70.3052 245.869 70.8051 245.618 71.2864L242.909 76.05L244.28 81.1694C244.565 82.2319 244.43 83.2428 243.876 84.2022C243.323 85.1616 242.514 85.7836 241.452 86.0683L236.332 87.4401L233.562 92.1683C233.27 92.626 232.917 93.014 232.502 93.3323C232.087 93.6505 231.638 93.8744 231.155 94.0038C230.672 94.1332 230.171 94.1639 229.652 94.0958C229.134 94.0277 228.634 93.8683 228.153 93.6177L223.389 90.9083Z" fill="url(#paint6_linear_640_2838)"/>
<path d="M219.767 51.5031C220.515 51.3027 221.28 51.2597 222.047 51.3602C222.806 51.4599 223.53 51.6928 224.21 52.0473L224.243 52.0647L224.275 52.0824L228.325 54.3862L232.652 53.2269C234.231 52.8038 235.787 53.0134 237.203 53.8304C238.618 54.6474 239.577 55.8906 240 57.4695L241.16 61.7954L245.18 64.1516L245.211 64.1705L245.243 64.1903C245.89 64.6026 246.454 65.1132 246.92 65.7206C247.39 66.3341 247.736 67.0186 247.936 67.7665C248.136 68.5145 248.179 69.28 248.079 70.0465C247.979 70.8054 247.746 71.5295 247.392 72.2102L247.374 72.2431L247.357 72.2752L245.053 76.3249L246.212 80.6517C246.635 82.2307 246.426 83.7872 245.609 85.2022C244.792 86.6173 243.548 87.5771 241.969 88.0002L237.643 89.1596L235.287 93.1796L235.269 93.2109L235.249 93.2425C234.836 93.8898 234.326 94.4536 233.718 94.9193C233.105 95.3897 232.42 95.7352 231.672 95.9357C230.925 96.1361 230.159 96.1791 229.392 96.0785C228.634 95.9788 227.91 95.7459 227.229 95.3914L227.196 95.374L227.164 95.3563L223.114 93.0525L218.787 94.2119C217.208 94.6349 215.652 94.4253 214.237 93.6083C212.822 92.7913 211.862 91.5482 211.439 89.9692L210.279 85.6424L206.259 83.2871L206.228 83.2682L206.196 83.2484C205.549 82.8362 204.985 82.3256 204.52 81.7181C204.049 81.1046 203.704 80.4202 203.503 79.6722C203.303 78.9242 203.26 78.1587 203.361 77.3922C203.46 76.6333 203.693 75.9092 204.048 75.2286L204.065 75.1956L204.083 75.1635L206.386 71.1129L205.227 66.787C204.804 65.208 205.014 63.6516 205.831 62.2365C206.648 60.8214 207.891 59.8616 209.47 59.4385L213.797 58.2791L216.152 54.2592L216.171 54.2278L216.191 54.1962C216.603 53.5489 217.113 52.9851 217.721 52.5194C218.334 52.049 219.019 51.7035 219.767 51.5031Z" stroke="white" stroke-width="4"/>
</g>
<defs>
<filter id="filter0_d_640_2838" x="41.6" y="35.2" width="236.8" height="268.8" filterUnits="userSpaceOnUse" color-interpolation-filters="sRGB">
<feFlood flood-opacity="0" result="BackgroundImageFix"/>
<feColorMatrix in="SourceAlpha" type="matrix" values="0 0 0 0 0 0 0 0 0 0 0 0 0 0 0 0 0 0 127 0" result="hardAlpha"/>
<feOffset dy="9.6"/>
<feGaussianBlur stdDeviation="19.2"/>
<feComposite in2="hardAlpha" operator="out"/>
<feColorMatrix type="matrix" values="0 0 0 0 0 0 0 0 0 0 0 0 0 0 0 0 0 0 0.1 0"/>
<feBlend mode="normal" in2="BackgroundImageFix" result="effect1_dropShadow_640_2838"/>
<feBlend mode="normal" in="SourceGraphic" in2="effect1_dropShadow_640_2838" result="shape"/>
</filter>
<filter id="filter1_d_640_2838" x="92" y="216" width="116" height="28" filterUnits="userSpaceOnUse" color-interpolation-filters="sRGB">
<feFlood flood-opacity="0" result="BackgroundImageFix"/>
<feColorMatrix in="SourceAlpha" type="matrix" values="0 0 0 0 0 0 0 0 0 0 0 0 0 0 0 0 0 0 127 0" result="hardAlpha"/>
<feOffset dy="4"/>
<feGaussianBlur stdDeviation="4"/>
<feComposite in2="hardAlpha" operator="out"/>
<feColorMatrix type="matrix" values="0 0 0 0 0 0 0 0 0 0 0 0 0 0 0 0 0 0 0.05 0"/>
<feBlend mode="normal" in2="BackgroundImageFix" result="effect1_dropShadow_640_2838"/>
<feBlend mode="normal" in="SourceGraphic" in2="effect1_dropShadow_640_2838" result="shape"/>
</filter>
<filter id="filter2_d_640_2838" x="92" y="196" width="128" height="28" filterUnits="userSpaceOnUse" color-interpolation-filters="sRGB">
<feFlood flood-opacity="0" result="BackgroundImageFix"/>
<feColorMatrix in="SourceAlpha" type="matrix" values="0 0 0 0 0 0 0 0 0 0 0 0 0 0 0 0 0 0 127 0" result="hardAlpha"/>
<feOffset dy="4"/>
<feGaussianBlur stdDeviation="4"/>
<feComposite in2="hardAlpha" operator="out"/>
<feColorMatrix type="matrix" values="0 0 0 0 0 0 0 0 0 0 0 0 0 0 0 0 0 0 0.05 0"/>
<feBlend mode="normal" in2="BackgroundImageFix" result="effect1_dropShadow_640_2838"/>
<feBlend mode="normal" in="SourceGraphic" in2="effect1_dropShadow_640_2838" result="shape"/>
</filter>
<filter id="filter3_d_640_2838" x="92" y="176" width="108" height="28" filterUnits="userSpaceOnUse" color-interpolation-filters="sRGB">
<feFlood flood-opacity="0" result="BackgroundImageFix"/>
<feColorMatrix in="SourceAlpha" type="matrix" values="0 0 0 0 0 0 0 0 0 0 0 0 0 0 0 0 0 0 127 0" result="hardAlpha"/>
<feOffset dy="4"/>
<feGaussianBlur stdDeviation="4"/>
<feComposite in2="hardAlpha" operator="out"/>
<feColorMatrix type="matrix" values="0 0 0 0 0 0 0 0 0 0 0 0 0 0 0 0 0 0 0.05 0"/>
<feBlend mode="normal" in2="BackgroundImageFix" result="effect1_dropShadow_640_2838"/>
<feBlend mode="normal" in="SourceGraphic" in2="effect1_dropShadow_640_2838" result="shape"/>
</filter>
<filter id="filter4_d_640_2838" x="92" y="156" width="124" height="28" filterUnits="userSpaceOnUse" color-interpolation-filters="sRGB">
<feFlood flood-opacity="0" result="BackgroundImageFix"/>
<feColorMatrix in="SourceAlpha" type="matrix" values="0 0 0 0 0 0 0 0 0 0 0 0 0 0 0 0 0 0 127 0" result="hardAlpha"/>
<feOffset dy="4"/>
<feGaussianBlur stdDeviation="4"/>
<feComposite in2="hardAlpha" operator="out"/>
<feColorMatrix type="matrix" values="0 0 0 0 0 0 0 0 0 0 0 0 0 0 0 0 0 0 0.05 0"/>
<feBlend mode="normal" in2="BackgroundImageFix" result="effect1_dropShadow_640_2838"/>
<feBlend mode="normal" in="SourceGraphic" in2="effect1_dropShadow_640_2838" result="shape"/>
</filter>
<filter id="filter5_d_640_2838" x="92" y="136" width="132" height="28" filterUnits="userSpaceOnUse" color-interpolation-filters="sRGB">
<feFlood flood-opacity="0" result="BackgroundImageFix"/>
<feColorMatrix in="SourceAlpha" type="matrix" values="0 0 0 0 0 0 0 0 0 0 0 0 0 0 0 0 0 0 127 0" result="hardAlpha"/>
<feOffset dy="4"/>
<feGaussianBlur stdDeviation="4"/>
<feComposite in2="hardAlpha" operator="out"/>
<feColorMatrix type="matrix" values="0 0 0 0 0 0 0 0 0 0 0 0 0 0 0 0 0 0 0.05 0"/>
<feBlend mode="normal" in2="BackgroundImageFix" result="effect1_dropShadow_640_2838"/>
<feBlend mode="normal" in="SourceGraphic" in2="effect1_dropShadow_640_2838" result="shape"/>
</filter>
<filter id="filter6_d_640_2838" x="92" y="88" width="88" height="32" filterUnits="userSpaceOnUse" color-interpolation-filters="sRGB">
<feFlood flood-opacity="0" result="BackgroundImageFix"/>
<feColorMatrix in="SourceAlpha" type="matrix" values="0 0 0 0 0 0 0 0 0 0 0 0 0 0 0 0 0 0 127 0" result="hardAlpha"/>
<feOffset dy="4"/>
<feGaussianBlur stdDeviation="4"/>
<feComposite in2="hardAlpha" operator="out"/>
<feColorMatrix type="matrix" values="0 0 0 0 0 0 0 0 0 0 0 0 0 0 0 0 0 0 0.05 0"/>
<feBlend mode="normal" in2="BackgroundImageFix" result="effect1_dropShadow_640_2838"/>
<feBlend mode="normal" in="SourceGraphic" in2="effect1_dropShadow_640_2838" result="shape"/>
</filter>
<filter id="filter7_d_640_2838" x="193.308" y="45.3076" width="64.8232" height="64.8232" filterUnits="userSpaceOnUse" color-interpolation-filters="sRGB">
<feFlood flood-opacity="0" result="BackgroundImageFix"/>
<feColorMatrix in="SourceAlpha" type="matrix" values="0 0 0 0 0 0 0 0 0 0 0 0 0 0 0 0 0 0 127 0" result="hardAlpha"/>
<feOffset dy="4"/>
<feGaussianBlur stdDeviation="4"/>
<feComposite in2="hardAlpha" operator="out"/>
<feColorMatrix type="matrix" values="0 0 0 0 0 0 0 0 0 0 0 0 0 0 0 0 0 0 0.05 0"/>
<feBlend mode="normal" in2="BackgroundImageFix" result="effect1_dropShadow_640_2838"/>
<feBlend mode="normal" in="SourceGraphic" in2="effect1_dropShadow_640_2838" result="shape"/>
</filter>
<linearGradient id="paint0_linear_640_2838" x1="200" y1="226" x2="100" y2="226" gradientUnits="userSpaceOnUse">
<stop stop-color="#C9CDD5"/>
<stop offset="1" stop-color="#AAB1C1"/>
</linearGradient>
<linearGradient id="paint1_linear_640_2838" x1="212" y1="206" x2="100" y2="206" gradientUnits="userSpaceOnUse">
<stop stop-color="#C9CDD5"/>
<stop offset="1" stop-color="#AAB1C1"/>
</linearGradient>
<linearGradient id="paint2_linear_640_2838" x1="192" y1="186" x2="100" y2="186" gradientUnits="userSpaceOnUse">
<stop stop-color="#C9CDD5"/>
<stop offset="1" stop-color="#AAB1C1"/>
</linearGradient>
<linearGradient id="paint3_linear_640_2838" x1="208" y1="166" x2="100" y2="166" gradientUnits="userSpaceOnUse">
<stop stop-color="#C9CDD5"/>
<stop offset="1" stop-color="#AAB1C1"/>
</linearGradient>
<linearGradient id="paint4_linear_640_2838" x1="216" y1="146" x2="100" y2="146" gradientUnits="userSpaceOnUse">
<stop stop-color="#C9CDD5"/>
<stop offset="1" stop-color="#AAB1C1"/>
</linearGradient>
<linearGradient id="paint5_linear_640_2838" x1="172" y1="100" x2="100" y2="100" gradientUnits="userSpaceOnUse">
<stop stop-color="#C9CDD5"/>
<stop offset="1" stop-color="#AAB1C1"/>
</linearGradient>
<linearGradient id="paint6_linear_640_2838" x1="246.004" y1="68.2843" x2="205.435" y2="79.1547" gradientUnits="userSpaceOnUse">
<stop stop-color="#C9CDD5"/>
<stop offset="1" stop-color="#AAB1C1"/>
</linearGradient>
</defs>
</svg>
