<svg width="320" height="320" viewBox="0 0 320 320" fill="none" xmlns="http://www.w3.org/2000/svg">
<g filter="url(#filter0_d_640_2843)">
<path d="M216 108.889C216 112.202 218.686 114.889 222 114.889C225.314 114.889 228 112.202 228 108.889V100H236L256 120V200L236 220H228V211.111C228 207.798 225.314 205.111 222 205.111C218.686 205.111 216 207.798 216 211.111V220H104V211.111C104 207.798 101.314 205.111 98 205.111C94.6863 205.111 92 207.798 92 211.111V220H84L64 200V120L84 100H92V108.889C92 112.202 94.6863 114.889 98 114.889C101.314 114.889 104 112.202 104 108.889V100H216V108.889ZM98 165.111C94.6863 165.111 92 167.798 92 171.111V188.889C92 192.202 94.6863 194.889 98 194.889C101.314 194.889 104 192.202 104 188.889V171.111C104 167.798 101.314 165.111 98 165.111ZM222 165.111C218.686 165.111 216 167.798 216 171.111V188.889C216 192.202 218.686 194.889 222 194.889C225.314 194.889 228 192.202 228 188.889V171.111C228 167.798 225.314 165.111 222 165.111ZM98 125.111C94.6863 125.111 92 127.798 92 131.111V148.889C92 152.202 94.6863 154.889 98 154.889C101.314 154.889 104 152.202 104 148.889V131.111C104 127.798 101.314 125.111 98 125.111ZM222 125.111C218.686 125.111 216 127.798 216 131.111V148.889C216 152.202 218.686 154.889 222 154.889C225.314 154.889 228 152.202 228 148.889V131.111C228 127.798 225.314 125.111 222 125.111Z" fill="white"/>
</g>
<circle cx="160" cy="160" r="24" fill="#D9D9D9"/>
<circle cx="160" cy="160" r="24" fill="url(#paint0_linear_640_2843)"/>
<defs>
<filter id="filter0_d_640_2843" x="25.6" y="71.2" width="268.8" height="196.8" filterUnits="userSpaceOnUse" color-interpolation-filters="sRGB">
<feFlood flood-opacity="0" result="BackgroundImageFix"/>
<feColorMatrix in="SourceAlpha" type="matrix" values="0 0 0 0 0 0 0 0 0 0 0 0 0 0 0 0 0 0 127 0" result="hardAlpha"/>
<feOffset dy="9.6"/>
<feGaussianBlur stdDeviation="19.2"/>
<feComposite in2="hardAlpha" operator="out"/>
<feColorMatrix type="matrix" values="0 0 0 0 0 0 0 0 0 0 0 0 0 0 0 0 0 0 0.1 0"/>
<feBlend mode="normal" in2="BackgroundImageFix" result="effect1_dropShadow_640_2843"/>
<feBlend mode="normal" in="SourceGraphic" in2="effect1_dropShadow_640_2843" result="shape"/>
</filter>
<linearGradient id="paint0_linear_640_2843" x1="184" y1="160" x2="136" y2="160" gradientUnits="userSpaceOnUse">
<stop stop-color="#C9CDD5"/>
<stop offset="1" stop-color="#AAB1C1"/>
</linearGradient>
</defs>
</svg>
