<svg width="320" height="320" viewBox="0 0 320 320" fill="none" xmlns="http://www.w3.org/2000/svg">
<g filter="url(#filter0_d_640_2841)">
<rect x="80" y="80" width="160" height="160" rx="19.2" fill="white"/>
</g>
<g filter="url(#filter1_d_640_2841)">
<rect x="95.1055" y="67.3232" width="160" height="160" rx="19.2" transform="rotate(10 95.1055 67.3232)" fill="white"/>
</g>
<rect x="108.086" y="85.8594" width="128" height="128" rx="12" transform="rotate(10 108.086 85.8594)" fill="white"/>
<rect x="108.086" y="85.8594" width="128" height="128" rx="12" transform="rotate(10 108.086 85.8594)" fill="url(#paint0_linear_640_2841)"/>
<g filter="url(#filter2_d_640_2841)">
<path d="M215.389 250.908L210.27 252.28C209.207 252.565 208.196 252.43 207.237 251.876C206.277 251.322 205.655 250.514 205.371 249.452L203.999 244.332L199.271 241.562C198.813 241.27 198.425 240.917 198.107 240.502C197.788 240.087 197.565 239.638 197.435 239.155C197.306 238.672 197.275 238.171 197.343 237.652C197.411 237.134 197.571 236.634 197.821 236.152L200.531 231.389L199.159 226.269C198.874 225.207 199.009 224.196 199.563 223.237C200.117 222.277 200.925 221.655 201.987 221.37L207.107 219.999L209.877 215.27C210.169 214.813 210.522 214.425 210.937 214.106C211.352 213.788 211.801 213.564 212.284 213.435C212.767 213.306 213.268 213.275 213.787 213.343C214.305 213.411 214.805 213.57 215.287 213.821L220.05 216.53L225.17 215.159C226.232 214.874 227.243 215.009 228.203 215.563C229.162 216.116 229.784 216.925 230.069 217.987L231.44 223.107L236.169 225.877C236.626 226.169 237.014 226.522 237.333 226.937C237.651 227.352 237.875 227.801 238.004 228.284C238.133 228.767 238.164 229.268 238.096 229.787C238.028 230.305 237.869 230.805 237.618 231.286L234.909 236.05L236.28 241.169C236.565 242.232 236.43 243.243 235.876 244.202C235.323 245.162 234.514 245.784 233.452 246.068L228.332 247.44L225.562 252.168C225.27 252.626 224.917 253.014 224.502 253.332C224.087 253.651 223.638 253.874 223.155 254.004C222.672 254.133 222.171 254.164 221.652 254.096C221.134 254.028 220.634 253.868 220.153 253.618L215.389 250.908Z" fill="#1F1F1F"/>
<path d="M215.389 250.908L210.27 252.28C209.207 252.565 208.196 252.43 207.237 251.876C206.277 251.322 205.655 250.514 205.371 249.452L203.999 244.332L199.271 241.562C198.813 241.27 198.425 240.917 198.107 240.502C197.788 240.087 197.565 239.638 197.435 239.155C197.306 238.672 197.275 238.171 197.343 237.652C197.411 237.134 197.571 236.634 197.821 236.152L200.531 231.389L199.159 226.269C198.874 225.207 199.009 224.196 199.563 223.237C200.117 222.277 200.925 221.655 201.987 221.37L207.107 219.999L209.877 215.27C210.169 214.813 210.522 214.425 210.937 214.106C211.352 213.788 211.801 213.564 212.284 213.435C212.767 213.306 213.268 213.275 213.787 213.343C214.305 213.411 214.805 213.57 215.287 213.821L220.05 216.53L225.17 215.159C226.232 214.874 227.243 215.009 228.203 215.563C229.162 216.116 229.784 216.925 230.069 217.987L231.44 223.107L236.169 225.877C236.626 226.169 237.014 226.522 237.333 226.937C237.651 227.352 237.875 227.801 238.004 228.284C238.133 228.767 238.164 229.268 238.096 229.787C238.028 230.305 237.869 230.805 237.618 231.286L234.909 236.05L236.28 241.169C236.565 242.232 236.43 243.243 235.876 244.202C235.323 245.162 234.514 245.784 233.452 246.068L228.332 247.44L225.562 252.168C225.27 252.626 224.917 253.014 224.502 253.332C224.087 253.651 223.638 253.874 223.155 254.004C222.672 254.133 222.171 254.164 221.652 254.096C221.134 254.028 220.634 253.868 220.153 253.618L215.389 250.908Z" fill="url(#paint1_linear_640_2841)"/>
<path d="M211.767 211.503C212.515 211.303 213.28 211.26 214.047 211.36C214.806 211.46 215.53 211.693 216.21 212.047L216.243 212.065L216.275 212.082L220.325 214.386L224.652 213.227C226.231 212.804 227.787 213.013 229.203 213.83C230.618 214.647 231.577 215.891 232 217.47L233.16 221.795L237.18 224.152L237.211 224.17L237.243 224.19C237.89 224.603 238.454 225.113 238.92 225.721C239.39 226.334 239.736 227.019 239.936 227.767C240.136 228.514 240.179 229.28 240.079 230.047C239.979 230.805 239.746 231.529 239.392 232.21L239.374 232.243L239.357 232.275L237.053 236.325L238.212 240.652C238.635 242.231 238.426 243.787 237.609 245.202C236.792 246.617 235.548 247.577 233.969 248L229.643 249.16L227.287 253.18L227.269 253.211L227.249 253.243C226.836 253.89 226.326 254.454 225.718 254.919C225.105 255.39 224.42 255.735 223.672 255.936C222.925 256.136 222.159 256.179 221.392 256.078C220.634 255.979 219.91 255.746 219.229 255.391L219.196 255.374L219.164 255.356L215.114 253.052L210.787 254.212C209.208 254.635 207.652 254.425 206.237 253.608C204.822 252.791 203.862 251.548 203.439 249.969L202.279 245.642L198.259 243.287L198.228 243.268L198.196 243.248C197.549 242.836 196.985 242.326 196.52 241.718C196.049 241.105 195.704 240.42 195.503 239.672C195.303 238.924 195.26 238.159 195.361 237.392C195.46 236.633 195.693 235.909 196.048 235.229L196.065 235.196L196.083 235.164L198.386 231.113L197.227 226.787C196.804 225.208 197.014 223.652 197.831 222.236C198.648 220.821 199.891 219.862 201.47 219.439L205.797 218.279L208.152 214.259L208.171 214.228L208.191 214.196C208.603 213.549 209.113 212.985 209.721 212.519C210.334 212.049 211.019 211.703 211.767 211.503Z" stroke="white" stroke-width="4"/>
</g>
<defs>
<filter id="filter0_d_640_2841" x="41.6" y="51.2" width="236.8" height="236.8" filterUnits="userSpaceOnUse" color-interpolation-filters="sRGB">
<feFlood flood-opacity="0" result="BackgroundImageFix"/>
<feColorMatrix in="SourceAlpha" type="matrix" values="0 0 0 0 0 0 0 0 0 0 0 0 0 0 0 0 0 0 127 0" result="hardAlpha"/>
<feOffset dy="9.6"/>
<feGaussianBlur stdDeviation="19.2"/>
<feComposite in2="hardAlpha" operator="out"/>
<feColorMatrix type="matrix" values="0 0 0 0 0 0 0 0 0 0 0 0 0 0 0 0 0 0 0.1 0"/>
<feBlend mode="normal" in2="BackgroundImageFix" result="effect1_dropShadow_640_2841"/>
<feBlend mode="normal" in="SourceGraphic" in2="effect1_dropShadow_640_2841" result="shape"/>
</filter>
<filter id="filter1_d_640_2841" x="31.9608" y="41.5623" width="256.075" height="256.074" filterUnits="userSpaceOnUse" color-interpolation-filters="sRGB">
<feFlood flood-opacity="0" result="BackgroundImageFix"/>
<feColorMatrix in="SourceAlpha" type="matrix" values="0 0 0 0 0 0 0 0 0 0 0 0 0 0 0 0 0 0 127 0" result="hardAlpha"/>
<feOffset dy="9.6"/>
<feGaussianBlur stdDeviation="19.2"/>
<feComposite in2="hardAlpha" operator="out"/>
<feColorMatrix type="matrix" values="0 0 0 0 0 0 0 0 0 0 0 0 0 0 0 0 0 0 0.1 0"/>
<feBlend mode="normal" in2="BackgroundImageFix" result="effect1_dropShadow_640_2841"/>
<feBlend mode="normal" in="SourceGraphic" in2="effect1_dropShadow_640_2841" result="shape"/>
</filter>
<filter id="filter2_d_640_2841" x="185.308" y="205.308" width="64.8232" height="64.8232" filterUnits="userSpaceOnUse" color-interpolation-filters="sRGB">
<feFlood flood-opacity="0" result="BackgroundImageFix"/>
<feColorMatrix in="SourceAlpha" type="matrix" values="0 0 0 0 0 0 0 0 0 0 0 0 0 0 0 0 0 0 127 0" result="hardAlpha"/>
<feOffset dy="4"/>
<feGaussianBlur stdDeviation="4"/>
<feComposite in2="hardAlpha" operator="out"/>
<feColorMatrix type="matrix" values="0 0 0 0 0 0 0 0 0 0 0 0 0 0 0 0 0 0 0.05 0"/>
<feBlend mode="normal" in2="BackgroundImageFix" result="effect1_dropShadow_640_2841"/>
<feBlend mode="normal" in="SourceGraphic" in2="effect1_dropShadow_640_2841" result="shape"/>
</filter>
<linearGradient id="paint0_linear_640_2841" x1="236.086" y1="149.86" x2="108.086" y2="149.86" gradientUnits="userSpaceOnUse">
<stop stop-color="#C9CDD5"/>
<stop offset="1" stop-color="#AAB1C1"/>
</linearGradient>
<linearGradient id="paint1_linear_640_2841" x1="238.004" y1="228.284" x2="197.435" y2="239.155" gradientUnits="userSpaceOnUse">
<stop stop-color="#C9CDD5"/>
<stop offset="1" stop-color="#AAB1C1"/>
</linearGradient>
</defs>
</svg>
