<svg width="32" height="28" viewBox="0 0 32 28" fill="none" xmlns="http://www.w3.org/2000/svg">
<g clip-path="url(#clip0_834_3324)">
<path d="M9.3516 6.3418V10.8652H11.2383V6.33008C11.2383 4.4082 12.3164 3.31836 14.25 3.31836H24.1641C26.0859 3.31836 27.1758 4.4082 27.1758 6.33008V21.6582C27.1758 23.5918 26.0859 24.6699 24.1641 24.6699H14.25C12.3164 24.6699 11.2383 23.5918 11.2383 21.6582V17.123H9.3516V21.6582C9.3516 24.8105 11.0977 26.5566 14.25 26.5566H24.1523C27.3047 26.5566 29.0625 24.8105 29.0625 21.6582V6.3418C29.0625 3.18945 27.3047 1.43164 24.1523 1.43164H14.25C11.0977 1.43164 9.3516 3.18945 9.3516 6.3418Z" fill="#181816"/>
<path d="M18.9961 13.9941C18.9961 14.498 18.5859 14.9199 18.0937 14.9199H6.1641L3.0117 14.7793C2.5781 14.7558 2.2266 14.4277 2.2266 13.9941C2.2266 13.5605 2.5781 13.2324 3.0117 13.2089L6.1641 13.0566H18.0937C18.5859 13.0566 18.9961 13.4902 18.9961 13.9941ZM7.3242 10.0215C7.3242 10.2441 7.2305 10.502 7.043 10.666L5.1094 12.4707L3.4922 13.9941L5.1094 15.5058L7.043 17.3222C7.2305 17.4863 7.3242 17.7324 7.3242 17.955C7.3242 18.4355 6.9727 18.8105 6.4922 18.8105C6.2461 18.8105 6.0586 18.705 5.8828 18.5293L2.1563 14.6738C1.9219 14.4394 1.8398 14.2285 1.8398 13.9941C1.8398 13.748 1.9219 13.5488 2.1563 13.3144L5.8828 9.44726C6.0586 9.27148 6.2461 9.17773 6.4922 9.17773C6.9727 9.17773 7.3242 9.5293 7.3242 10.0215Z" fill="#181816"/>
</g>
<defs>
<clipPath id="clip0_834_3324">
<rect width="30.5625" height="25.1367" fill="white" transform="matrix(-1 0 0 1 30.5625 1.43164)"/>
</clipPath>
</defs>
</svg>
