<svg width="28" height="28" viewBox="0 0 28 28" fill="none" xmlns="http://www.w3.org/2000/svg">
<g clip-path="url(#clip0_400_2538)">
<path d="M14.879 22.6192V5.36914C14.879 4.80664 14.3984 4.32617 13.8242 4.32617C13.25 4.32617 12.7812 4.80664 12.7812 5.36914V22.6192C12.7812 23.1817 13.25 23.6621 13.8242 23.6621C14.3984 23.6621 14.879 23.1817 14.879 22.6192ZM5.19922 15.0371H22.4492C23.0117 15.0371 23.4921 14.5684 23.4921 13.9941C23.4921 13.4199 23.0117 12.9395 22.4492 12.9395H5.19922C4.63672 12.9395 4.15625 13.4199 4.15625 13.9941C4.15625 14.5684 4.63672 15.0371 5.19922 15.0371Z" fill="black"/>
</g>
<defs>
<clipPath id="clip0_400_2538">
<rect width="19.6875" height="19.3477" fill="white" transform="translate(4.15625 4.32617)"/>
</clipPath>
</defs>
</svg>
